# xmcd CD database file
#
# Track frame offsets:
#	150
#	19147
#	33517
#	52767
#	70505
#	118644
#	144560
#	187541
#	229830
#	259934
#	296974
#
# Disc length: 4445 seconds
#
# Revision: 0
# Processed by: cddbd v1.5.2PL0 Copyright (c) Steve Scherf et al.
# Submitted via: CDex 1.70beta2
#
DISCID=95115b0b
DTITLE=Various Artist -  The best of Blue Note - Disc 01 of 02
DYEAR=2014
DGENRE=Blues
TTITLE0=Summertime (Sidney Bechet Quintet)
TTITLE1='Round about midnight (Thelonious Monk)
TTITLE2=Night in Tunisia (Bud Powell)
TTITLE3=Brownie eyes (Clifford Brown)
TTITLE4=Blue train (John Coltraine)
TTITLE5=Tune up (Sonny Rollins)
TTITLE6=Moanin' (Art Blakey and The Jazz Messengers)
TTITLE7=Cool struttin' (Sonny Clark)
TTITLE8=Blues walk (Lou Donaldson)
TTITLE9=Somethin' else (Cannonball Adderley  - featuring Miles Davis)
TTITLE10=Back at the chicken shack (Jimmy Smith)
EXTD=YEAR: 2014
EXTT0=
EXTT1=
EXTT2=
EXTT3=
EXTT4=
EXTT5=
EXTT6=
EXTT7=
EXTT8=
EXTT9=
EXTT10=
PLAYORDER=
